{
  "accessors": [
    {
      "bufferView": 2,
      "componentType": 5126,
      "count": 65532,
      "max": [
        38.746578216552734,
        51.57497787475586,
        33.08777618408203
      ],
      "min": [
        0.0,
        0.19805526733398438,
        0.0062732696533203125
      ],
      "type": "VEC3"
    },
    {
      "bufferView": 2,
      "byteOffset": 786384,
      "componentType": 5126,
      "count": 65532,
      "max": [
        0.9999922513961792,
        0.9923204183578491,
        0.9998319149017334
      ],
      "min": [
        -0.9999846816062927,
        -0.999996542930603,
        -0.9998612403869629
      ],
      "type": "VEC3"
    },
    {
      "bufferView": 1,
      "componentType": 5126,
      "count": 65532,
      "max": [
        0.9958540201187134,
        0.9980233907699585
      ],
      "min": [
        0.002030476927757263,
        0.25713956356048584
      ],
      "type": "VEC2"
    },
    {
      "bufferView": 0,
      "componentType": 5125,
      "count": 316722,
      "type": "SCALAR"
    },
    {
      "bufferView": 2,
      "byteOffset": 1572768,
      "componentType": 5126,
      "count": 65532,
      "max": [
        38.72224426269531,
        51.431610107421875,
        33.088111877441406
      ],
      "min": [
        0.15760040283203125,
        0.0,
        0.021271705627441406
      ],
      "type": "VEC3"
    },
    {
      "bufferView": 2,
      "byteOffset": 2359152,
      "componentType": 5126,
      "count": 65532,
      "max": [
        0.9999889135360718,
        0.9920490980148315,
        0.9999547600746155
      ],
      "min": [
        -0.9999846816062927,
        -0.9999802708625793,
        -0.9999943971633911
      ],
      "type": "VEC3"
    },
    {
      "bufferView": 1,
      "byteOffset": 524256,
      "componentType": 5126,
      "count": 65532,
      "max": [
        0.9904600977897644,
        0.9980368614196777
      ],
      "min": [
        0.0021277584601193666,
        0.1805053949356079
      ],
      "type": "VEC2"
    },
    {
      "bufferView": 0,
      "byteOffset": 1266888,
      "componentType": 5125,
      "count": 310833,
      "type": "SCALAR"
    },
    {
      "bufferView": 2,
      "byteOffset": 3145536,
      "componentType": 5126,
      "count": 52622,
      "max": [
        38.66621017456055,
        51.57497787475586,
        33.088111877441406
      ],
      "min": [
        0.0,
        0.0019130706787109375,
        0.0
      ],
      "type": "VEC3"
    },
    {
      "bufferView": 2,
      "byteOffset": 3777000,
      "componentType": 5126,
      "count": 52622,
      "max": [
        0.9999848008155823,
        0.999454915523529,
        0.9999106526374817
      ],
      "min": [
        -0.9999846816062927,
        -0.99997878074646,
        -0.9998612403869629
      ],
      "type": "VEC3"
    },
    {
      "bufferView": 1,
      "byteOffset": 1048512,
      "componentType": 5126,
      "count": 52622,
      "max": [
        0.9963828325271606,
        0.9980325102806091
      ],
      "min": [
        0.0020730048418045044,
        0.18035787343978882
      ],
      "type": "VEC2"
    },
    {
      "bufferView": 0,
      "byteOffset": 2510220,
      "componentType": 5125,
      "count": 184260,
      "type": "SCALAR"
    },
    {
      "bufferView": 2,
      "byteOffset": 4408464,
      "componentType": 5126,
      "count": 732,
      "max": [
        38.495140075683594,
        51.556983947753906,
        32.99921798706055
      ],
      "min": [
        0.09907341003417969,
        18.142642974853516,
        1.6454973220825195
      ],
      "type": "VEC3"
    },
    {
      "bufferView": 2,
      "byteOffset": 4417248,
      "componentType": 5126,
      "count": 732,
      "max": [
        0.9024660587310791,
        0.9999909400939941,
        0.5144928097724915
      ],
      "min": [
        -0.7915114164352417,
        0.28091859817504883,
        -0.6222692728042603
      ],
      "type": "VEC3"
    },
    {
      "bufferView": 0,
      "byteOffset": 3247260,
      "componentType": 5125,
      "count": 3213,
      "type": "SCALAR"
    }
  ],
  "asset": {
    "extras": {
      "author": "zasedvs (https://sketchfab.com/zasedvs)",
      "license": "CC-BY-4.0 (http://creativecommons.org/licenses/by/4.0/)",
      "source": "https://sketchfab.com/3d-models/cat-figure-d04d8ac2c1ba47ee9e03351b4f08dd4b",
      "title": "Cat figure"
    },
    "generator": "Sketchfab-12.67.0",
    "version": "2.0"
  },
  "bufferViews": [
    {
      "buffer": 0,
      "byteLength": 3260112,
      "name": "floatBufferViews",
      "target": 34963
    },
    {
      "buffer": 0,
      "byteLength": 1469488,
      "byteOffset": 3260112,
      "byteStride": 8,
      "name": "floatBufferViews",
      "target": 34962
    },
    {
      "buffer": 0,
      "byteLength": 4426032,
      "byteOffset": 4729600,
      "byteStride": 12,
      "name": "floatBufferViews",
      "target": 34962
    }
  ],
  "buffers": [
    {
      "byteLength": 9155632,
      "uri": "scene.bin"
    }
  ],
  "extensionsUsed": [
    "KHR_materials_unlit"
  ],
  "images": [
    {
      "uri": "textures/Texture_0_baseColor.jpeg"
    }
  ],
  "materials": [
    {
      "doubleSided": true,
      "extensions": {
        "KHR_materials_unlit": {}
      },
      "name": "Texture_0",
      "pbrMetallicRoughness": {
        "baseColorTexture": {
          "index": 0
        },
        "metallicFactor": 0.0
      }
    },
    {
      "doubleSided": true,
      "extensions": {
        "KHR_materials_unlit": {}
      },
      "name": "Untextured",
      "pbrMetallicRoughness": {
        "baseColorFactor": [
          0.501961,
          0.501961,
          0.501961,
          1.0
        ],
        "metallicFactor": 0.0
      }
    }
  ],
  "meshes": [
    {
      "name": "Object_0",
      "primitives": [
        {
          "attributes": {
            "NORMAL": 1,
            "POSITION": 0,
            "TEXCOORD_0": 2
          },
          "indices": 3,
          "material": 0,
          "mode": 4
        }
      ]
    },
    {
      "name": "Object_1",
      "primitives": [
        {
          "attributes": {
            "NORMAL": 5,
            "POSITION": 4,
            "TEXCOORD_0": 6
          },
          "indices": 7,
          "material": 0,
          "mode": 4
        }
      ]
    },
    {
      "name": "Object_2",
      "primitives": [
        {
          "attributes": {
            "NORMAL": 9,
            "POSITION": 8,
            "TEXCOORD_0": 10
          },
          "indices": 11,
          "material": 0,
          "mode": 4
        }
      ]
    },
    {
      "name": "Object_3",
      "primitives": [
        {
          "attributes": {
            "NORMAL": 13,
            "POSITION": 12
          },
          "indices": 14,
          "material": 1,
          "mode": 4
        }
      ]
    }
  ],
  "nodes": [
    {
      "children": [
        1
      ],
      "matrix": [
        1.0,
        0.0,
        0.0,
        0.0,
        0.0,
        2.220446049250313e-16,
        -1.0,
        0.0,
        0.0,
        1.0,
        2.220446049250313e-16,
        0.0,
        0.0,
        0.0,
        0.0,
        1.0
      ],
      "name": "Sketchfab_model"
    },
    {
      "children": [
        2,
        3,
        4,
        5
      ],
      "matrix": [
        1.0,
        0.0,
        0.0,
        0.0,
        0.0,
        1.0,
        0.0,
        0.0,
        0.0,
        0.0,
        1.0,
        0.0,
        -18.021984100341797,
        -19.09466552734375,
        -15.510339736938477,
        1.0
      ],
      "name": "mesh.obj.cleaner.gles"
    },
    {
      "mesh": 0,
      "name": "Object_2"
    },
    {
      "mesh": 1,
      "name": "Object_3"
    },
    {
      "mesh": 2,
      "name": "Object_4"
    },
    {
      "mesh": 3,
      "name": "Object_5"
    }
  ],
  "samplers": [
    {
      "magFilter": 9729,
      "minFilter": 9987,
      "wrapS": 10497,
      "wrapT": 10497
    }
  ],
  "scene": 0,
  "scenes": [
    {
      "name": "Sketchfab_Scene",
      "nodes": [
        0
      ]
    }
  ],
  "textures": [
    {
      "sampler": 0,
      "source": 0
    }
  ]
}
